ply
format ascii 1.0
comment VCGLIB generated
element vertex 12
property float x
property float y
property float z
property float nx
property float ny
property float nz
element face 20
property list uchar int vertex_indices
end_header
0 0 -1 3.69549e-06 0 -4.16078 
0.7236 -0.52572 -0.447215 3.0108 -2.18747 -1.86078 
-0.276385 -0.85064 -0.447215 -1.15 -3.53941 -1.86077 
0.7236 0.52572 -0.447215 3.0108 2.18747 -1.86078 
-0.894425 0 -0.447215 -3.7215 0 -1.86074 
-0.276385 0.85064 -0.447215 -1.15 3.53941 -1.86077 
-0.7236 -0.52572 0.447215 -3.0108 -2.18747 1.86078 
0.894425 0 0.447215 3.7215 0 1.86074 
0.276385 -0.85064 0.447215 1.15 -3.53941 1.86077 
-0.7236 0.52572 0.447215 -3.0108 2.18747 1.86078 
0.276385 0.85064 0.447215 1.15 3.53941 1.86077 
0 0 1 -3.69549e-06 0 4.16078 
3 0 1 2 
3 1 0 3 
3 0 2 4 
3 0 4 5 
3 0 5 3 
3 1 3 7 
3 2 1 8 
3 4 2 6 
3 5 4 9 
3 3 5 10 
3 1 7 8 
3 2 8 6 
3 4 6 9 
3 5 9 10 
3 3 10 7 
3 8 7 11 
3 6 8 11 
3 9 6 11 
3 10 9 11 
3 7 10 11 
